<?xml version="1.0" encoding="UTF-8"?>
<svg xmlns="http://www.w3.org/2000/svg" version="1.1" viewBox="0 0 3061.4 3061.4">
  <defs>
    <style>
      .cls-1 {
        fill: none;
      }

      .cls-2 {
        fill: #f4f4f4;
      }
    </style>
  </defs>
  <!-- Generator: Adobe Illustrator 28.6.0, SVG Export Plug-In . SVG Version: 1.2.0 Build 709)  -->
  <g>
    <g id="Calque_1">
      <path class="cls-1" d="M2760.8,948.6v908.4H141.1v-908.4h2619.7ZM488.3,1276.8h-153.9c-1.6,0-5.3,5.9-3.9,7.9,25.5,3.6,51.1,16.9,63.6,40.2l143.3,308.5,14.3-1.2,27.3-64c51.9-121.5,98.6-257.1,156.1-374.5,10-20.5,29.3-43.2,54.5-42.5,22.1.6,18,22.9,20.8,36.6,8.8,42.5,64.6,53.7,90.9,16.9,21.9-30.6-.6-66.7-31.6-78.7-59.1-22.9-122.7,5.2-147.7,62.5l-146.9,353.6c-1.7,1.3-7.2-6.4-8.4-8.6-36.2-67.5-62.3-146.1-98.2-214.4-2.3-10.4-4.1-24.5,6.8-30.1,6.4-3.3,15.1-.1,13-12h0ZM1251.1,1555v132.6c0,26-30,55.8-52.6,65.6-34.7,15-69.6,13.5-105.1,2.6-4.7-1.4-10-6.6-14.6-6.5-5.8.1-15.9,12-10.2,15.9,8.2,5.6,54.5,16.7,65.8,17.9,68.8,6.9,186.4-26.3,193.1-108.5,9.3-113.5-7.4-239.5.1-354.3,2.9-13.9,9.6-26.6,23.4-31.8,7.5-2.8,18,1.4,15.8-11.7h-115.7c-1.5,4.7,3.9,22.6-4,21-5.7-1.1-15.3-9.5-21.8-12.4-125.7-56.6-240,59-232.1,184.5,5.2,83.1,64.4,171.5,156.6,163.9,47.5-3.9,69.6-42.8,95.3-75.4,1.7-2.1-.2-4.8,6-3.3h0ZM1537.8,1345v-68.3h-118.4c-2.9,12.4,10,8.5,18.2,12,9.5,4.1,19.5,15.8,21.1,26.2-5.5,87.2,7.9,184.4.3,270.4-1.9,21.3-18.1,35.3-39.6,35.3v7.9h157.8v-7.9c-19.2.3-34.8-11.9-39.3-30.4v-217.6c15.8-30.7,62.6-80,98.3-83,42.4-3.5,69.1,40,72.5,77.6,6.3,72-4.5,152.7-.1,225.6-2.4,15.1-24.2,29.1-39.3,27.7v7.9h157.8v-7.9c-19.4,0-34.7-12.3-38.3-31.4-17.4-92.4,44.6-280.4-82.6-313.9-51.5-13.6-101.7,4.1-139.5,39.4-10.4,9.7-17.6,21.7-28.9,30.2h0ZM2242.7,1594.4c-30.2,6.5-57.9-11.5-60.6-43.2-5.2-63,15.7-181.2-23.6-231.1-39.8-50.5-140.9-58.4-197.2-36.8-42.8,16.5-82.6,64.2-51.2,108.8,24.6,34.8,78.8,30.2,93.2-10.3-34.8,3-44.5-27.2-36.5-56.2,9.8-35.9,51.7-42.6,83.4-34,53.7,14.7,54.3,86.8,53,132-54.5,11.1-135,16.1-181.2,48.8-42.7,30.3-44.5,102.2-4.1,135,56,45.4,160.8,13.1,182.8-55.1l7.3,25.5c19.4,48.1,77.2,66.9,120.2,34.9,2.6-1.9,17.3-15.8,14.5-18.4h0ZM898.6,1276.8h-118.4c-2.1,13.3,8.5,8.8,15.9,11.7,10.2,4.1,17.6,12.6,22.4,22.3l1.1,282.2c-4.8,17.6-22,26.1-39.3,27.8v7.8h157.8v-7.9c-12.7,3.8-39.5-16.5-39.5-27.6v-316.4h0ZM2379.4,1276.8h-114.4c-1.5,0-5.5,6.2-3.9,7.9,19.4,1.4,37,10.8,41.5,30.8,13.5,92.9-42.5,281.6,82.1,314.5,69.9,18.4,126.9-20.6,168.4-72.3v70.9h118.4v-7.9c-12.7,3.8-39.5-16.5-39.5-27.6v-316.4h-118.4c-2.9,12.4,10,8.5,18.2,12,9.5,4.1,19.5,15.8,21.1,26.2-4.5,68.3,6.6,145.4.3,212.6-1.3,14-18.8,34-29,44.6-41.4,43-102.6,70.8-133.6-.6-4.8-11.1-11.1-38.3-11.1-49.3v-245.5h0Z"/>
      <path class="cls-2" d="M1251.1,1555c-6.2-1.5-4.3,1.2-6,3.3-25.7,32.5-47.8,71.5-95.3,75.4-92.2,7.6-151.4-80.8-156.6-163.9-7.9-125.5,106.5-241,232.1-184.5,6.4,2.9,16.1,11.3,21.8,12.4,7.9,1.5,2.5-16.3,4-21h115.7c2.1,13.1-8.4,8.9-15.8,11.7-13.8,5.2-20.5,17.9-23.4,31.8-7.5,114.8,9.2,240.8-.1,354.3-6.8,82.3-124.2,115.5-193.1,108.5-11.3-1.1-57.7-12.3-65.8-17.9-5.7-3.9,4.4-15.8,10.2-15.9,4.5,0,9.9,5.1,14.6,6.5,35.5,10.9,70.5,12.4,105.1-2.6,22.6-9.8,52.6-39.6,52.6-65.6v-132.6h0ZM1147.8,1290.5c-84.6,14.3-91.8,158.4-73.6,221.9,25.6,89.4,129.4,92.4,176.3,19.7l.8-204.3c-1.6-14.6-34.2-29.9-47.6-33.9-15.8-4.7-39.5-6.2-55.8-3.4h0Z"/>
      <path class="cls-2" d="M1537.8,1345c11.3-8.5,18.5-20.5,28.9-30.2,37.8-35.3,88-53,139.5-39.4,127.2,33.6,65.2,221.5,82.6,313.9,3.6,19.1,18.8,31.3,38.3,31.4v7.9h-157.8v-7.9c15.1,1.4,36.9-12.6,39.3-27.7-4.4-72.9,6.4-153.6.1-225.6-3.3-37.6-30-81.1-72.5-77.6-35.7,3-82.5,52.3-98.4,83v217.6c4.5,18.4,20.1,30.7,39.3,30.4v7.9h-157.8v-7.9c21.4,0,37.7-14.1,39.6-35.3,7.6-86-5.8-183.2-.3-270.4-1.6-10.4-11.5-22.2-21.1-26.2-8.2-3.5-21.2.4-18.2-12h118.4v68.3h0Z"/>
      <path class="cls-2" d="M2379.4,1276.8v245.5c0,11,6.3,38.3,11.1,49.3,31,71.5,92.2,43.6,133.6.6,10.2-10.5,27.7-30.6,29-44.6,6.3-67.2-4.8-144.3-.3-212.6-1.6-10.4-11.5-22.2-21.1-26.2-8.2-3.5-21.2.4-18.2-12h118.4v316.4c0,11.1,26.7,31.4,39.5,27.6v7.9h-118.4v-70.9c-41.5,51.7-98.5,90.7-168.4,72.3-124.6-32.9-68.6-221.6-82.1-314.5-4.5-20-22.1-29.4-41.5-30.8-1.5-1.7,2.4-7.9,3.9-7.9h114.4Z"/>
      <path class="cls-2" d="M2242.7,1594.4c2.8,2.6-11.9,16.5-14.5,18.4-43,32-100.8,13.2-120.2-34.9l-7.3-25.5c-22,68.2-126.8,100.4-182.8,55.1-40.5-32.8-38.7-104.7,4.1-135,46.2-32.7,126.7-37.8,181.2-48.8,1.4-45.2.8-117.3-53-132-31.7-8.7-73.6-1.9-83.4,34-7.9,28.9,1.7,59.2,36.5,56.2-14.4,40.6-68.6,45.1-93.2,10.3-31.4-44.5,8.4-92.3,51.2-108.8,56.3-21.7,157.4-13.7,197.2,36.8,39.3,49.9,18.4,168.1,23.6,231.1,2.6,31.7,30.4,49.7,60.6,43.2h0ZM2103.3,1436.9c-54.1,7.7-134.1,18.4-136.9,87.8-3.4,85.9,96.6,88.3,125.7,12.6,3.2-8.3,11.1-33.8,11.1-41.4v-59.1h0Z"/>
      <path class="cls-2" d="M488.3,1276.8c2.1,11.9-6.5,8.7-13,12-10.9,5.6-9.1,19.7-6.8,30.1,35.9,68.3,62,146.9,98.2,214.4,1.2,2.3,6.7,9.9,8.4,8.6l146.9-353.6c25-57.3,88.6-85.4,147.7-62.5,31,12,53.5,48.2,31.6,78.7-26.3,36.7-82.1,25.6-90.9-16.9-2.8-13.7,1.3-36-20.8-36.6-25.2-.7-44.4,22.1-54.5,42.5-57.5,117.4-104.2,253-156.1,374.5l-27.3,64-14.3,1.2-143.3-308.5c-12.5-23.3-38.1-36.6-63.6-40.2-1.4-2,2.4-7.9,3.9-7.9h153.9Z"/>
      <path class="cls-2" d="M898.6,1276.8v316.4c0,11.1,26.7,31.4,39.5,27.6v7.9h-157.8v-7.8c17.3-1.7,34.6-10.2,39.3-27.8l-1.1-282.2c-4.7-9.6-12.2-18.2-22.4-22.3-7.4-2.9-17.9,1.6-15.9-11.7h118.4Z"/>
      <path class="cls-1" d="M1147.8,1290.5c16.3-2.8,40-1.3,55.8,3.4,13.4,4,46,19.3,47.6,33.9l-.8,204.3c-46.9,72.7-150.7,69.7-176.3-19.7-18.2-63.5-10.9-207.6,73.6-221.9h0Z"/>
      <path class="cls-1" d="M2103.3,1436.9v59.1c0,7.5-7.9,33-11.1,41.4-29.1,75.7-129.2,73.3-125.7-12.6,2.8-69.4,82.7-80.2,136.9-87.8h0Z"/>
      <g>
        <path class="cls-1" d="M2691.5,1631.8l1.3,1.3v273.7l-1.3,1.3h-920.4v-275l1.3-1.3h919.1ZM1940.1,1737.1c42.4-22,19.5-55.9-19-62.6-31.7-5.5-79.4,0-88.7,36.9-13.5,53.8,53.9,66.1,87.9,85.9,15.5,9,31.9,23.7,22.6,43.5-9.8,20.8-41.6,27.6-61.7,19.9-19.1-7.3-27.9-29-26-48.3.5-4.8,2.6-8.9,3.6-13.1.9-3.5-4.3-1.4-6-.8-10.6,3.8-21.4,14.3-23.3,25.6-8.6,52.6,80,54.7,111.5,36.6,13.9-8,29.6-26.6,30.1-43.3,1.2-40.9-68.8-60.1-96.6-78.4-13.8-9.1-23.9-18.8-17.5-36.5,8.9-24.7,47.3-29.3,66.4-13.5,6.6,5.4,16.7,21.2,16.7,29.6v18.6h0ZM2466.9,1673.2c-23.6,3.9-19.1,43,8.4,37.9,23.4-4.3,19-42.5-8.4-37.9ZM2408,1675.5h-46.4c-.7,3.9,1,2,3.1,2.7,3.5,1.1,12.4,5.5,12.4,9.5v52c-40.4-26.6-89.2.4-98.7,44.9-6,28.2,5.2,67.1,32.6,80.6,30.7,15.2,50.7-1.6,66.7-26.6,2.5,16.7,16.4,31.1,34.2,29.5l-3.9-14.8v-177.9h0ZM2040.6,1692.2h-6.3c-3.2,20.6-17.6,33.4-37.4,38-2.5.6-6,.2-7.8,1.2-2.6,1.4-.7,5.8.7,5.8h20v91.9c0,.9,2.3,8.3,2.9,10,9.5,26.9,40.7,39.8,66.7,27.3,4-1.9,9.7-4,4.5-8.4-10.9,8-27,8.2-36.7-1.9-1.5-1.5-6.4-10-6.4-11.6v-107.3h26.4l1.9-3.2-1.9-3.2h-26.4v-38.5h0ZM2585.5,1729.8c-59.9,6.9-85.5,82.9-39,123,56.3,48.5,146.9-7,118.6-78.3-12.8-32.1-45.7-48.5-79.6-44.6ZM2239.1,1730.7h-44.5c-.6,0-2.8,2.1-.7,3.2,1.7.9,4.1.8,6.1,1.6,6.1,2.6,8.5,7.5,9.3,13.9,2.9,24.8-2,54.3.2,79.6-.7,6-13.8,19.5-18.8,23.7-13.7,11.5-29.1,17.6-41.9.7-2.6-3.5-7.7-15.3-7.7-19.3v-101.5l-1.9-1.9h-42.5c-.8,0-2.5,2.6-1.9,3.8,7-1.1,12.6,3.7,15.2,9.9,5,36-15.9,112,32.5,124.4,21.2,5.4,39.9-.7,55.5-15.4,4.2-4,6.7-9.2,11.6-12.2v27h45.1c.7-3.9-1-2-3.1-2.7-2.4-.8-5.2-1.5-7.2-3.2-1.2-1.1-5.2-7.8-5.2-8.9v-122.7h0ZM2486.6,1854.7v-122.1l-1.9-1.9h-44.5v3.8c9.3,0,14.8,5.7,15.5,14.7,2.7,33.8-2.1,71.2-.1,105.4-1.3,6.4-6.5,9-12.3,10.9-2,.7-3.7-1.2-3.1,2.7h61.9c.7-3.9-1-2-3.1-2.7-5.3-1.7-11.3-4.7-12.4-10.8h0Z"/>
        <path class="cls-2" d="M1940.1,1737.1v-18.6c0-8.3-10.2-24.1-16.7-29.6-19.1-15.7-57.5-11.1-66.4,13.5-6.4,17.7,3.7,27.4,17.5,36.5,27.8,18.4,97.8,37.5,96.6,78.4-.5,16.8-16.2,35.3-30.1,43.3-31.4,18.1-120.1,16-111.5-36.6,1.9-11.4,12.7-21.8,23.3-25.6,1.7-.6,6.8-2.7,6,.8-1,4.2-3.2,8.4-3.6,13.1-1.8,19.3,6.9,41,26,48.3,20.1,7.7,52,.8,61.7-19.9,9.3-19.8-7.1-34.5-22.6-43.5-34-19.8-101.5-32.1-87.9-85.9,9.3-36.9,57-42.4,88.7-36.9,38.5,6.7,61.4,40.7,19,62.6h0Z"/>
        <path class="cls-2" d="M2408,1675.5v177.9l3.9,14.8c-17.8,1.6-31.7-12.8-34.2-29.5-16,25.1-36,41.8-66.7,26.6-27.4-13.6-38.6-52.4-32.6-80.6,9.4-44.5,58.3-71.5,98.7-44.9v-52c0-4.1-8.9-8.4-12.4-9.5-2-.7-3.7,1.2-3.1-2.7h46.4ZM2371.5,1839.5c2.6-2.6,6.7-8,6.9-11.8l-.3-78.2c-17-17.9-45.8-19.8-61.4,1.3-15.7,21.3-17.4,77.3,5.6,94.2,14.7,10.8,36.7,6.9,49.2-5.6h0Z"/>
        <path class="cls-2" d="M2239.1,1730.7v122.7c0,1.1,4,7.8,5.2,8.9,1.9,1.7,4.8,2.4,7.2,3.2,2,.7,3.7-1.2,3.1,2.7h-45.1v-27c-4.9,3.1-7.4,8.3-11.6,12.2-15.6,14.7-34.3,20.8-55.5,15.4-48.3-12.4-27.5-88.4-32.5-124.4-2.6-6.2-8.2-11-15.2-9.9-.5-1.2,1.1-3.8,1.9-3.8h42.5l1.9,1.9v101.5c0,4,5.1,15.8,7.7,19.3,12.8,17,28.2,10.8,41.9-.7,5-4.2,18.1-17.7,18.8-23.7-2.2-25.3,2.7-54.8-.2-79.6-.8-6.4-3.2-11.3-9.3-13.9-2-.8-4.4-.8-6.1-1.6-2.2-1.1.1-3.2.7-3.2h44.5Z"/>
        <path class="cls-2" d="M2585.5,1729.8c33.9-3.9,66.8,12.5,79.6,44.6,28.3,71.3-62.2,126.9-118.6,78.3-46.5-40.1-20.9-116.1,39-123ZM2592,1736.2c-49.3,6.9-51.5,111.7-5.9,126,37.2,11.7,55.6-37.2,53.9-66.6-1.4-24.8-17.3-63.7-48.1-59.3h0Z"/>
        <path class="cls-2" d="M2040.6,1692.2v38.5h26.4l1.9,3.2-1.9,3.2h-26.4v107.3c0,1.6,5,10,6.4,11.6,9.7,10.1,25.8,9.9,36.7,1.9,5.2,4.3-.5,6.4-4.5,8.4-26.1,12.6-57.2-.3-66.7-27.3-.6-1.7-2.9-9.1-2.9-10v-91.9h-20c-1.3,0-3.3-4.4-.7-5.8,1.8-1,5.4-.6,7.8-1.2,19.9-4.6,34.2-17.3,37.4-37.9h6.3c0,0,0,0,0,0Z"/>
        <path class="cls-2" d="M2486.6,1854.7c1.1,6.2,7.1,9.1,12.4,10.8,2,.7,3.7-1.2,3.1,2.7h-61.9c-.7-3.9,1-2,3.1-2.7,5.8-1.9,11.1-4.4,12.3-10.9-2-34.2,2.8-71.5.1-105.4-.7-9-6.3-14.7-15.5-14.7v-3.8h44.5l1.9,1.9v122.1h0Z"/>
        <path class="cls-2" d="M2466.9,1673.2c27.4-4.6,31.8,33.7,8.4,37.9-27.6,5-32-34-8.4-37.9Z"/>
        <path class="cls-1" d="M2371.5,1839.5c-12.5,12.4-34.5,16.4-49.2,5.6-23-16.9-21.3-72.9-5.6-94.2,15.6-21.1,44.4-19.1,61.4-1.3l.3,78.2c-.2,3.8-4.3,9.1-6.9,11.8h0Z"/>
        <path class="cls-1" d="M2592,1736.2c30.8-4.3,46.6,34.5,48.1,59.3,1.7,29.5-16.7,78.3-53.9,66.6-45.7-14.3-43.4-119.1,5.9-126h0Z"/>
      </g>
      <polygon class="cls-1" points="4133 1105.6 4133 1107.2 4131.4 1107.2 4133 1105.6"/>
    </g>
  </g>
</svg>